REM DIRINDEX 1\4,1\2\5,1\2\6,1\3\7,1\3\8
REM DIRNAME folder01,folder02,folder03,folder04,folder05,folder06,folder07,folder08
TITLE ""
FILE "036_Day18_Check3_Sentences.mp3" MP3
  TRACK 01 AUDIO
    TITLE "0:"
    INDEX 01 00:00:00
  TRACK 02 AUDIO
    TITLE "4:cjc124_1158"
    INDEX 01 00:00:25
  TRACK 03 AUDIO
    TITLE "0:"
    INDEX 01 00:01:52
  TRACK 04 AUDIO
    TITLE "7:cjc124_1159"
    INDEX 01 00:02:22
  TRACK 05 AUDIO
    TITLE "0:"
    INDEX 01 00:05:40
  TRACK 06 AUDIO
    TITLE "8:cjc124_1160"
    INDEX 01 00:06:04
  TRACK 07 AUDIO
    TITLE "0:"
    INDEX 01 00:08:52
  TRACK 08 AUDIO
    TITLE "7:cjc124_1161"
    INDEX 01 00:09:22
  TRACK 09 AUDIO
    TITLE "0:"
    INDEX 01 00:11:56
  TRACK 10 AUDIO
    TITLE "8:cjc124_1162"
    INDEX 01 00:11:70
  TRACK 11 AUDIO
    TITLE "0:"
    INDEX 01 00:14:19
  TRACK 12 AUDIO
    TITLE "7:cjc124_1163"
    INDEX 01 00:14:56
  TRACK 13 AUDIO
    TITLE "0:"
    INDEX 01 00:17:20
  TRACK 14 AUDIO
    TITLE "8:cjc124_1164"
    INDEX 01 00:17:35
  TRACK 15 AUDIO
    TITLE "0:"
    INDEX 01 00:20:36
  TRACK 16 AUDIO
    TITLE "7:cjc124_1165"
    INDEX 01 00:21:04
  TRACK 17 AUDIO
    TITLE "0:"
    INDEX 01 00:22:40
  TRACK 18 AUDIO
    TITLE "8:cjc124_1166"
    INDEX 01 00:22:66
  TRACK 19 AUDIO
    TITLE "0:"
    INDEX 01 00:24:61
  TRACK 20 AUDIO
    TITLE "7:cjc124_1167"
    INDEX 01 00:25:25
  TRACK 21 AUDIO
    TITLE "0:"
    INDEX 01 00:28:23
  TRACK 22 AUDIO
    TITLE "8:cjc124_1168"
    INDEX 01 00:28:49
  TRACK 23 AUDIO
    TITLE "0:"
    INDEX 01 00:32:01
  TRACK 24 AUDIO
    TITLE "7:cjc124_1169"
    INDEX 01 00:32:39
  TRACK 25 AUDIO
    TITLE "0:"
    INDEX 01 00:34:67
  TRACK 26 AUDIO
    TITLE "8:cjc124_1170"
    INDEX 01 00:35:08
  TRACK 27 AUDIO
    TITLE "0:"
    INDEX 01 00:37:20
  TRACK 28 AUDIO
    TITLE "7:cjc124_1171"
    INDEX 01 00:37:57
  TRACK 29 AUDIO
    TITLE "0:"
    INDEX 01 00:40:34
  TRACK 30 AUDIO
    TITLE "8:cjc124_1172"
    INDEX 01 00:40:58
  TRACK 31 AUDIO
    TITLE "0:"
    INDEX 01 00:42:68
  TRACK 32 AUDIO
    TITLE "7:cjc124_1173"
    INDEX 01 00:43:31
  TRACK 33 AUDIO
    TITLE "0:"
    INDEX 01 00:47:44
  TRACK 34 AUDIO
    TITLE "8:cjc124_1174"
    INDEX 01 00:47:60
  TRACK 35 AUDIO
    TITLE "0:"
    INDEX 01 00:50:19
  TRACK 36 AUDIO
    TITLE "7:cjc124_1175"
    INDEX 01 00:50:58
  TRACK 37 AUDIO
    TITLE "0:"
    INDEX 01 00:54:01
  TRACK 38 AUDIO
    TITLE "8:cjc124_1176"
    INDEX 01 00:54:25
  TRACK 39 AUDIO
    TITLE "0:"
    INDEX 01 00:56:29
  TRACK 40 AUDIO
    TITLE "7:cjc124_1177"
    INDEX 01 00:56:71
  TRACK 41 AUDIO
    TITLE "0:"
    INDEX 01 00:59:28
  TRACK 42 AUDIO
    TITLE "8:cjc124_1178"
    INDEX 01 00:59:45
  TRACK 43 AUDIO
    TITLE "0:"
    INDEX 01 01:02:08
  TRACK 44 AUDIO
    TITLE "7:cjc124_1179"
    INDEX 01 01:02:44
  TRACK 45 AUDIO
    TITLE "0:"
    INDEX 01 01:05:73
  TRACK 46 AUDIO
    TITLE "8:cjc124_1180"
    INDEX 01 01:06:14
  TRACK 47 AUDIO
    TITLE "0:"
    INDEX 01 01:10:22
  TRACK 48 AUDIO
    TITLE "7:cjc124_1181"
    INDEX 01 01:10:57
  TRACK 49 AUDIO
    TITLE "0:"
    INDEX 01 01:14:68
  TRACK 50 AUDIO
    TITLE "8:cjc124_1182"
    INDEX 01 01:15:07
  TRACK 51 AUDIO
    TITLE "0:"
    INDEX 01 01:18:68
  TRACK 52 AUDIO
    TITLE "7:cjc124_1183"
    INDEX 01 01:19:28
  TRACK 53 AUDIO
    TITLE "0:"
    INDEX 01 01:22:25
  TRACK 54 AUDIO
    TITLE "8:cjc124_1184"
    INDEX 01 01:22:39
  TRACK 55 AUDIO
    TITLE "0:"
    INDEX 01 01:25:08
  TRACK 56 AUDIO
    TITLE "7:cjc124_1185"
    INDEX 01 01:25:45
  TRACK 57 AUDIO
    TITLE "0:"
    INDEX 01 01:29:64
  TRACK 58 AUDIO
    TITLE "8:cjc124_1186"
    INDEX 01 01:30:05
  TRACK 59 AUDIO
    TITLE "0:"
    INDEX 01 01:34:05
  TRACK 60 AUDIO
    TITLE "7:cjc124_1187"
    INDEX 01 01:34:50
  TRACK 61 AUDIO
    TITLE "0:"
    INDEX 01 01:36:68
  TRACK 62 AUDIO
    TITLE "8:cjc124_1188"
    INDEX 01 01:37:11
  TRACK 63 AUDIO
    TITLE "0:"
    INDEX 01 01:39:61
  TRACK 64 AUDIO
    TITLE "7:cjc124_1189"
    INDEX 01 01:40:21
  TRACK 65 AUDIO
    TITLE "0:"
    INDEX 01 01:43:31
  TRACK 66 AUDIO
    TITLE "8:cjc124_1190"
    INDEX 01 01:43:49
  TRACK 67 AUDIO
    TITLE "0:"
    INDEX 01 01:46:10
